<?xml version="1.0" standalone="no"?>
<!DOCTYPE svg PUBLIC "-//W3C//DTD SVG 20010904//EN"
 "http://www.w3.org/TR/2001/REC-SVG-20010904/DTD/svg10.dtd">
<svg version="1.0" xmlns="http://www.w3.org/2000/svg"
 width="500.000000pt" height="500.000000pt" viewBox="0 0 500.000000 500.000000"
 preserveAspectRatio="xMidYMid meet">
<metadata>
Created by potrace 1.11, written by Peter Selinger 2001-2013
</metadata>
<g transform="translate(0.000000,500.000000) scale(0.100000,-0.100000)"
fill="#000000" stroke="none">
<path d="M995 4469 c-156 -26 -260 -109 -338 -269 -77 -158 -142 -432 -167
-705 -11 -124 -13 -497 -3 -658 6 -102 7 -107 29 -107 16 0 25 9 34 33 6 17
45 129 86 247 42 118 100 276 131 350 53 131 184 413 189 408 1 -2 -24 -192
-57 -423 -32 -231 -59 -422 -59 -424 0 -3 15 9 33 26 58 56 78 53 131 -19 38
-54 77 -52 146 5 94 77 113 89 135 81 11 -4 46 -8 78 -8 50 0 70 7 150 49 202
106 283 146 315 151 29 6 37 2 72 -35 22 -22 44 -41 51 -41 6 0 27 14 46 30
43 38 90 40 122 6 21 -23 24 -23 53 -9 72 36 161 25 193 -23 22 -33 38 -30 73
14 l30 38 -44 104 c-87 204 -242 507 -323 627 -138 207 -310 369 -475 447
-196 94 -449 136 -631 105z m365 -44 c253 -61 487 -216 651 -430 88 -115 82
-119 -21 -20 -248 238 -404 337 -695 442 -131 47 -108 50 65 8z"/>
<path d="M2523 2741 c-7 -26 -61 -35 -127 -21 -34 7 -67 8 -92 2 -87 -20 -377
-117 -381 -128 -3 -9 92 -160 127 -201 5 -7 10 -17 10 -23 0 -5 4 -10 8 -10 5
0 17 -18 28 -40 10 -22 22 -40 27 -40 4 0 7 -7 7 -15 0 -8 3 -15 8 -15 4 0 16
-16 26 -35 11 -19 23 -35 28 -35 4 0 8 -4 8 -8 0 -4 34 -59 76 -122 42 -63 78
-120 81 -127 4 -11 -64 -125 -79 -131 -5 -2 -8 -10 -8 -17 0 -7 -3 -15 -7 -17
-5 -1 -33 -41 -63 -88 -30 -47 -58 -86 -62 -88 -5 -2 -8 -8 -8 -14 0 -6 -16
-33 -35 -59 -19 -27 -35 -54 -35 -59 0 -6 -4 -10 -8 -10 -5 0 -17 -16 -28 -35
-10 -19 -22 -35 -26 -35 -5 0 -8 -4 -8 -8 0 -9 -96 -159 -126 -197 -9 -11 -21
-30 -27 -42 -5 -13 -14 -23 -19 -23 -4 0 -8 -6 -8 -14 0 -8 -3 -16 -8 -18 -4
-1 -32 -41 -61 -88 -30 -47 -58 -86 -63 -88 -4 -2 -8 -8 -8 -13 0 -5 -16 -32
-35 -59 -19 -27 -35 -54 -35 -59 0 -5 -3 -11 -8 -13 -11 -5 -202 -294 -202
-307 0 -6 -4 -11 -8 -11 -8 0 -42 -52 -42 -64 0 -3 171 -6 381 -6 316 0 383 2
395 14 8 8 14 17 14 20 0 3 16 28 35 55 19 26 35 51 35 55 0 4 5 12 10 19 23
27 203 294 213 315 6 12 14 22 19 22 4 0 8 4 8 9 0 9 86 140 110 168 5 7 10
15 10 18 0 3 5 11 10 18 6 7 46 63 88 126 43 63 83 116 89 118 6 2 39 -40 74
-94 34 -54 65 -100 69 -103 7 -6 263 -391 269 -405 2 -5 9 -15 15 -21 6 -7 58
-84 116 -172 l105 -161 388 0 c213 -1 387 1 387 4 0 5 -145 222 -166 248 -8 9
-14 22 -14 27 0 6 -4 10 -9 10 -5 0 -11 8 -15 17 -6 21 -25 51 -44 71 -6 7
-17 23 -23 35 -7 11 -16 26 -21 31 -5 6 -44 65 -88 131 -43 66 -84 125 -89
132 -6 7 -11 17 -11 23 0 5 -3 10 -8 10 -4 0 -16 16 -26 35 -11 19 -23 35 -28
35 -4 0 -8 5 -8 10 0 12 -52 94 -62 98 -5 2 -8 8 -8 14 0 6 -11 26 -25 44 -14
18 -25 37 -25 42 0 6 -4 12 -9 14 -5 2 -61 82 -125 178 -63 96 -120 180 -126
187 -5 7 -10 17 -10 23 0 5 -4 10 -8 10 -5 0 -14 10 -19 23 -6 12 -18 31 -27
42 -22 27 -278 411 -291 436 -5 10 -13 19 -17 19 -5 0 -8 5 -8 11 0 6 -11 25
-25 43 -14 18 -25 38 -25 44 0 7 -4 12 -10 12 -5 0 -10 7 -10 15 0 8 -4 15 -8
15 -5 0 -18 17 -30 38 -11 21 -29 47 -39 59 -10 12 -45 64 -78 117 -52 83 -64
95 -88 95 -20 1 -30 -5 -34 -18z m997 -1655 c-10 -13 -10 -16 4 -16 9 0 16 -4
16 -10 0 -5 -6 -10 -14 -10 -8 0 -18 -5 -21 -10 -4 -7 3 -8 20 -4 21 5 26 3
23 -7 -2 -7 -15 -16 -27 -19 l-23 -5 26 -24 c20 -19 26 -21 26 -9 0 9 7 22 16
29 15 12 16 10 10 -21 l-7 -35 18 30 17 30 6 -24 c5 -21 7 -22 19 -8 10 13 16
13 25 4 18 -16 8 -47 -15 -47 -12 0 -16 -5 -13 -15 8 -20 -10 -19 -26 0 -7 9
-15 13 -18 10 -3 -3 3 -14 13 -25 14 -16 15 -20 4 -20 -8 0 -20 5 -27 12 -14
14 -17 11 -26 -19 -6 -20 -4 -23 18 -23 14 0 26 -4 26 -10 0 -5 -6 -10 -14
-10 -8 0 -18 -5 -21 -10 -4 -7 2 -9 19 -4 16 4 26 2 26 -5 0 -6 -4 -11 -10
-11 -5 0 -10 -4 -10 -10 0 -5 7 -10 15 -10 26 0 14 -31 -17 -43 -14 -5 -18 -1
-18 16 -1 20 -2 21 -14 5 -17 -23 -27 -12 -21 21 5 25 5 25 -9 -3 -15 -32 -32
-20 -21 16 6 18 4 20 -16 15 -13 -4 -27 -7 -32 -7 -4 0 0 -11 8 -24 21 -31 2
-44 -19 -14 -13 18 -16 19 -16 6 0 -9 5 -20 10 -23 16 -10 12 -28 -5 -21 -10
4 -15 -1 -15 -14 0 -23 -25 -26 -46 -6 -12 13 -12 16 3 25 17 10 17 10 1 11
-26 0 -22 28 5 33 19 4 18 4 -5 6 -28 1 -40 21 -14 21 22 0 30 19 16 35 -17
20 -27 19 -35 -5 -9 -29 -28 -25 -23 5 6 30 -7 34 -15 5 -3 -11 -11 -20 -17
-20 -7 0 -10 7 -6 15 6 17 -5 20 -20 5 -15 -15 -36 12 -28 34 4 12 13 15 28
10 18 -6 19 -5 7 10 -11 14 -11 16 2 16 9 0 19 -4 22 -10 3 -5 11 -10 17 -10
6 0 3 9 -7 20 -24 26 -11 39 15 15 23 -21 26 -20 36 19 6 26 5 28 -15 21 -36
-11 -49 7 -16 22 21 10 23 13 8 9 -26 -5 -42 12 -23 24 8 5 7 9 -4 13 -21 8
-21 36 0 44 11 4 22 -1 30 -12 8 -10 14 -13 14 -7 0 7 5 12 10 12 6 0 10 -12
10 -27 l1 -28 12 23 c15 27 29 18 21 -13 -5 -20 -2 -22 20 -18 28 6 33 22 14
41 -20 20 1 26 23 6 22 -19 22 -19 10 3 -16 32 -15 49 4 33 12 -10 15 -9 15 8
0 25 20 34 39 16 12 -11 12 -16 1 -28z m-1620 -383 c-3 -40 -1 -50 8 -36 5 8
12 8 26 -3 16 -11 17 -16 6 -29 -7 -9 -19 -14 -27 -11 -7 3 -13 1 -13 -4 0 -6
6 -10 13 -11 9 0 9 -2 -1 -6 -10 -4 -10 -8 -1 -19 15 -19 9 -25 -19 -17 -12 3
-22 13 -22 22 -1 12 -7 9 -25 -11 -30 -35 -37 -35 -31 0 2 15 5 30 5 34 1 4 7
6 14 4 6 -1 9 -1 5 1 -5 3 -8 12 -9 21 0 12 -3 10 -9 -5 -10 -24 -18 -27 -44
-17 -21 8 -20 17 5 32 17 11 20 11 13 0 -6 -10 -3 -9 10 1 9 8 13 17 8 20 -5
3 -12 16 -16 29 -6 19 -4 22 14 19 12 -2 26 -10 31 -18 7 -11 11 -10 24 9 22
30 37 28 35 -5z"/>
<path d="M3447 992 c-26 -6 -2 -32 30 -32 19 0 24 -4 19 -16 -7 -19 11 -57 25
-49 30 19 -36 106 -74 97z"/>
<path d="M3377 973 c-14 -13 -6 -33 12 -33 16 0 31 18 31 36 0 7 -36 5 -43 -3z"/>
<path d="M3357 906 c-8 -19 51 -86 75 -86 30 0 21 30 -11 36 -23 5 -31 13 -33
32 -3 29 -23 40 -31 18z"/>
<path d="M3483 868 c-21 -28 -24 -38 -9 -38 16 0 46 26 46 41 0 13 -26 11 -37
-3z"/>
<path d="M1835 670 c-3 -5 -1 -10 4 -10 6 0 11 5 11 10 0 6 -2 10 -4 10 -3 0
-8 -4 -11 -10z"/>
<path d="M1860 671 c0 -6 4 -11 9 -11 5 0 12 -8 14 -17 4 -15 5 -15 6 -2 0 9
-6 22 -14 29 -10 9 -15 9 -15 1z"/>
<path d="M2990 2560 c0 -9 125 -206 140 -220 13 -13 60 -91 60 -100 0 -5 4
-10 8 -10 5 0 17 -16 28 -35 10 -19 22 -35 26 -35 5 0 8 -7 8 -15 0 -8 4 -15
9 -15 5 0 12 -8 15 -17 3 -10 17 -30 30 -45 l23 -28 687 0 686 0 0 265 0 265
-860 0 c-571 0 -860 -3 -860 -10z m1401 -70 c10 -6 19 -20 19 -31 0 -11 -4
-17 -10 -14 -5 3 -10 -1 -10 -11 0 -14 3 -14 15 -4 13 10 19 10 33 -3 21 -19
52 -24 71 -13 10 6 12 5 7 -2 -4 -7 -1 -12 8 -12 24 0 19 -15 -9 -28 -21 -10
-27 -8 -39 10 -14 20 -16 20 -22 4 -5 -14 -9 -15 -16 -4 -7 10 -8 9 -6 -4 2
-9 -1 -17 -7 -17 -5 -1 -10 3 -10 8 0 5 -3 12 -7 15 -5 3 -6 3 -3 -1 3 -3 -1
-13 -8 -21 -7 -10 -8 -13 -1 -9 8 4 11 -2 10 -17 -1 -18 -4 -22 -14 -14 -9 8
-11 7 -6 -7 5 -13 4 -16 -4 -11 -7 4 -12 3 -12 -3 0 -6 -7 -8 -16 -4 -13 5
-13 7 -2 14 7 5 9 9 3 9 -5 0 -3 5 5 10 12 8 12 10 1 10 -8 0 -4 8 10 21 l24
20 -27 -4 c-16 -2 -28 0 -28 4 0 5 -3 8 -7 8 -21 -3 -33 2 -33 15 0 9 7 13 20
11 11 -2 20 1 20 7 0 7 5 6 15 -2 8 -7 12 -17 8 -22 -3 -6 0 -8 8 -6 8 3 13
11 11 17 -1 6 -4 19 -5 29 -2 9 -9 27 -15 40 -14 25 -4 29 29 12z m95 -15 c1
-8 -3 -15 -9 -15 -7 0 -5 -5 3 -10 13 -8 12 -10 -2 -10 -10 0 -18 -5 -18 -10
0 -7 -5 -6 -13 1 -14 13 -18 51 -5 43 4 -3 8 0 8 6 0 6 5 8 10 5 6 -3 10 -1
10 6 0 16 13 3 16 -16z m-966 -15 c0 -5 9 -10 19 -10 15 0 18 -5 13 -22 -5
-21 -4 -22 12 -9 19 16 35 6 18 -11 -13 -13 -16 -48 -4 -48 4 0 13 5 20 12 9
9 12 8 12 -7 1 -18 1 -19 11 -3 7 12 6 24 -1 39 -15 26 -6 36 16 18 14 -12 16
-11 12 6 -2 13 5 24 20 33 14 6 25 12 26 12 2 0 3 -13 3 -30 0 -18 -6 -30 -14
-30 -7 0 -13 -4 -13 -10 0 -5 7 -10 15 -10 26 0 16 -19 -12 -22 -14 -2 -29 -9
-31 -17 -3 -9 0 -11 8 -6 10 6 12 2 8 -13 -8 -28 17 -30 34 -2 18 28 38 26 30
-2 -5 -21 -4 -22 13 -8 14 11 19 12 22 3 3 -7 11 -13 19 -13 8 0 14 -4 14 -10
0 -5 -6 -10 -14 -10 -8 0 -16 -6 -19 -12 -4 -10 -7 -10 -18 0 -20 18 -28 15
-22 -10 l5 -23 -20 23 c-23 25 -55 30 -46 7 5 -12 2 -14 -12 -8 -17 6 -17 5
-5 -10 7 -9 24 -17 37 -17 13 0 24 -4 24 -10 0 -5 -7 -10 -15 -10 -8 0 -15 -4
-15 -10 0 -5 6 -10 13 -10 8 0 14 -12 14 -30 0 -30 -7 -37 -21 -22 -4 4 -13 7
-19 7 -7 0 -11 11 -9 25 2 23 1 24 -11 8 -18 -22 -30 -12 -16 14 6 11 8 27 4
36 -5 14 -7 14 -16 2 -8 -13 -10 -13 -18 0 -9 12 -11 12 -17 -3 -3 -9 -1 -24
6 -32 17 -21 5 -31 -16 -14 -14 11 -16 10 -12 -11 2 -14 -2 -25 -9 -25 -6 0
-15 -3 -19 -7 -14 -15 -21 -8 -21 22 0 18 6 30 14 30 7 0 13 5 13 10 0 6 -7
10 -15 10 -26 0 -16 19 12 22 14 2 28 9 31 16 2 7 0 12 -5 11 -20 -3 -27 2
-13 11 13 8 12 10 -3 10 -11 0 -28 -10 -39 -22 l-20 -23 5 23 c6 24 -3 28 -21
10 -9 -9 -13 -7 -18 5 -3 9 -12 17 -20 17 -8 0 -14 5 -14 10 0 6 6 10 14 10 8
0 17 6 20 13 5 10 7 10 12 0 8 -18 27 -16 21 2 -9 22 11 28 22 6 14 -26 43
-36 39 -13 -2 10 3 16 10 14 8 -1 12 3 10 10 -3 7 -17 14 -31 16 -28 3 -38 22
-12 22 8 0 15 5 15 10 0 6 -6 10 -13 10 -9 0 -14 12 -15 30 0 17 4 30 9 30 5
0 9 -4 9 -10z m948 -121 c-7 -5 -8 -9 -3 -9 6 0 11 -9 12 -20 2 -27 -11 -25
-26 3 -6 12 -9 14 -6 4 3 -10 1 -15 -5 -12 -14 9 -12 43 3 48 6 2 18 2 25 -1
11 -4 11 -6 0 -13z"/>
<path d="M3587 2314 c-13 -13 -7 -24 14 -24 11 0 19 5 17 12 -5 14 -22 21 -31
12z"/>
<path d="M1640 2528 c-19 -5 -99 -11 -178 -13 -131 -3 -146 -5 -193 -29 -40
-22 -62 -26 -112 -25 -48 2 -72 -3 -107 -20 -25 -13 -46 -25 -48 -26 -5 -4 51
-89 61 -93 4 -2 7 -7 7 -12 0 -7 108 -171 130 -197 5 -7 10 -16 10 -22 0 -5 3
-11 8 -13 12 -5 102 -147 102 -162 0 -11 -209 -337 -240 -373 -5 -7 -10 -17
-10 -23 0 -5 -4 -10 -8 -10 -5 0 -17 -16 -28 -35 -10 -19 -22 -35 -26 -35 -5
0 -8 -5 -8 -10 0 -6 -5 -16 -10 -23 -6 -7 -74 -109 -153 -227 -78 -118 -145
-216 -149 -218 -5 -2 -8 -8 -8 -14 0 -5 -11 -24 -25 -42 -14 -18 -25 -38 -25
-44 0 -7 -4 -12 -10 -12 -5 0 -10 -6 -10 -14 0 -8 -4 -16 -8 -18 -4 -1 -62
-86 -129 -188 -67 -102 -127 -190 -133 -197 -5 -7 -10 -16 -10 -20 0 -5 -9
-15 -20 -23 -11 -8 -20 -18 -20 -22 0 -4 175 -8 390 -8 l390 0 27 43 c15 23
30 44 33 47 4 3 44 64 90 135 47 72 88 131 92 133 5 2 8 10 8 18 0 8 4 14 9
14 5 0 12 8 15 18 4 10 14 27 24 38 23 27 41 56 48 77 4 9 10 17 15 17 5 0 9
7 9 15 0 8 5 15 10 15 6 0 10 4 10 9 0 8 106 171 130 198 5 7 10 16 10 22 0 5
3 11 8 13 4 2 32 41 62 88 30 47 58 87 63 88 4 2 7 8 7 14 0 6 16 33 35 59 19
27 35 54 35 59 0 6 4 10 8 10 4 0 16 15 27 33 10 17 21 34 25 37 3 3 33 48 66
100 32 52 67 104 76 114 10 11 20 28 24 38 3 10 10 18 15 18 5 0 9 7 9 15 0 8
4 15 9 15 5 0 14 13 20 28 9 22 9 35 0 55 -7 15 -16 27 -21 27 -4 0 -8 5 -8
11 0 6 -27 49 -60 97 -73 105 -63 91 -156 232 -41 63 -82 123 -90 133 -7 9
-14 22 -14 27 0 6 -3 10 -7 10 -5 0 -16 14 -25 30 -19 33 -17 32 -68 18z m147
-480 c0 -13 -6 -26 -12 -30 -6 -5 -6 -8 3 -8 6 0 12 -4 12 -10 0 -5 -8 -10
-18 -10 -28 0 -33 -10 -15 -28 14 -14 17 -14 28 1 16 22 29 22 21 1 -5 -14 -4
-15 9 -4 10 8 15 9 15 1 0 -6 7 -11 15 -11 8 0 15 -4 15 -9 0 -13 -27 -21 -45
-15 -11 5 -14 2 -8 -12 6 -18 6 -18 -14 -1 -21 19 -38 23 -28 7 3 -5 1 -10 -4
-10 -6 0 -11 -4 -11 -10 0 -5 12 -10 28 -10 26 -1 26 -1 8 -15 -15 -12 -16
-15 -5 -15 9 0 15 -8 14 -20 -1 -21 -15 -41 -15 -22 0 7 -7 12 -16 12 -11 0
-14 5 -10 16 6 15 4 15 -10 3 -16 -13 -17 -11 -11 13 6 23 4 27 -14 25 -16 -1
-19 -6 -14 -24 6 -24 -9 -33 -18 -10 -3 6 -6 2 -6 -11 -1 -13 -5 -20 -11 -17
-5 3 -10 1 -10 -4 0 -6 -4 -11 -9 -11 -13 0 -10 43 4 52 6 5 6 8 -2 8 -7 0
-13 5 -13 10 0 6 9 10 19 10 11 0 23 5 27 12 4 7 3 8 -4 4 -7 -4 -12 0 -12 10
0 16 -1 16 -18 1 -21 -19 -37 -23 -26 -6 4 7 0 9 -12 5 -11 -3 -26 -1 -34 4
-13 8 -12 11 5 24 14 10 24 11 33 4 9 -8 11 -7 6 6 -8 21 3 21 24 0 15 -15 16
-15 23 2 8 24 1 37 -17 30 -7 -3 -16 -1 -19 4 -4 6 2 10 12 10 15 0 15 2 4 9
-20 13 -23 54 -4 46 8 -3 19 -5 25 -5 6 0 8 -7 4 -15 -3 -8 -1 -15 4 -15 6 0
10 5 10 11 0 5 5 7 11 3 8 -4 8 -9 0 -17 -16 -16 -14 -24 10 -30 18 -5 20 -2
16 19 -3 18 -1 24 9 20 8 -3 14 -1 14 5 0 11 22 38 32 39 4 0 6 -10 5 -22z
m-599 -738 c13 0 13 -2 -4 -15 -19 -14 -19 -14 1 -15 l20 -1 -20 -11 c-11 -6
-21 -11 -21 -12 -1 -1 -5 -11 -8 -23 -6 -17 -3 -23 8 -23 9 0 16 -5 16 -11 0
-26 20 6 21 34 1 18 3 24 6 15 2 -10 11 -18 19 -18 8 0 13 -4 9 -9 -3 -5 3
-12 12 -14 12 -3 8 -5 -9 -6 -25 -1 -52 -21 -29 -21 6 0 11 -7 11 -15 0 -18 5
-18 31 -5 10 6 19 20 19 30 0 11 5 20 10 20 6 0 10 -8 10 -17 0 -15 2 -14 15
3 8 11 15 14 15 7 0 -7 8 -13 18 -13 13 0 14 -2 3 -9 -7 -5 -10 -14 -6 -21 6
-9 1 -10 -16 -5 -21 7 -22 6 -10 -9 15 -18 1 -22 -16 -5 -6 6 -22 9 -36 5 -21
-5 -27 -23 -18 -54 1 -1 12 5 25 13 23 15 24 15 24 -9 0 -14 -5 -23 -10 -20
-6 4 -8 -3 -4 -17 l7 -24 -17 23 c-15 21 -52 33 -39 13 3 -5 0 -13 -6 -16 -19
-12 28 -36 58 -30 25 6 26 5 11 -8 -23 -18 -23 -26 0 -20 13 3 18 -2 18 -17 0
-13 -5 -19 -13 -16 -7 3 -13 1 -13 -4 0 -6 -5 -10 -11 -10 -5 0 -7 5 -4 10 3
6 3 16 -1 22 -6 9 -10 5 -15 -12 -7 -23 -7 -23 -8 6 -1 37 -28 66 -41 45 -4
-8 -13 -10 -19 -7 -6 4 -11 3 -11 -3 0 -6 12 -17 28 -25 19 -11 22 -15 10 -16
-10 0 -18 -5 -18 -11 0 -5 -5 -7 -11 -3 -6 3 -15 0 -20 -7 -4 -7 -11 -10 -15
-6 -4 4 -2 13 4 19 16 16 16 52 0 41 -7 -4 -17 -8 -23 -8 -18 0 -17 -36 2 -57
18 -20 18 -21 -7 -13 l-25 8 20 -23 c17 -19 17 -22 3 -17 -9 3 -18 1 -21 -6
-2 -8 -9 -6 -21 6 -16 15 -16 18 -2 23 24 9 19 23 -6 17 -20 -4 -19 -2 5 12
19 11 27 24 27 42 0 14 -3 23 -7 20 -3 -4 -12 -2 -20 4 -10 9 -13 5 -14 -22 0
-19 -3 -28 -6 -21 -2 6 -11 12 -19 12 -9 0 -12 5 -9 10 3 6 -1 10 -9 10 -9 0
-16 5 -16 10 0 6 11 10 25 10 14 0 25 5 25 10 0 6 -5 10 -11 10 -5 0 -7 5 -4
10 8 13 -11 13 -36 0 -10 -6 -19 -20 -19 -30 0 -11 -4 -20 -9 -20 -5 0 -7 10
-3 22 3 14 2 19 -6 14 -7 -4 -12 -14 -12 -22 0 -8 -4 -14 -10 -14 -5 0 -6 8
-3 17 5 12 2 15 -10 10 -9 -3 -17 -2 -17 3 0 6 4 10 10 10 5 0 7 8 3 18 -5 14
-3 15 8 5 17 -17 37 -17 21 -1 -21 21 -13 29 12 13 20 -14 29 -14 48 -4 13 7
18 14 11 16 -7 3 -9 11 -6 19 7 18 -2 18 -32 -2 -15 -10 -25 -12 -25 -5 0 6 4
11 10 11 5 0 8 14 6 30 -4 35 4 38 22 10 14 -23 37 -27 28 -5 -3 8 0 15 6 15
6 0 3 9 -7 20 -13 14 -25 18 -44 14 -25 -6 -26 -6 -6 10 19 17 19 17 -10 11
-23 -5 -27 -4 -18 6 6 6 9 18 6 27 -5 11 -3 13 6 7 8 -4 17 -2 22 6 6 10 9 7
9 -11 1 -24 1 -24 15 -6 14 19 15 18 15 -11 0 -42 23 -61 46 -38 15 14 15 18
3 26 -8 5 -17 9 -21 9 -5 0 -8 4 -8 10 0 5 7 7 15 4 8 -4 15 -1 15 7 0 7 3 9
7 6 3 -4 13 -1 21 6 16 12 16 12 -4 -37 -3 -9 3 -13 20 -13 22 0 26 4 26 28 0
15 -4 31 -10 34 -5 3 -10 11 -10 17 0 7 6 6 15 -2 18 -15 20 1 3 18 -9 9 -8
12 5 12 9 0 18 6 18 13 1 6 3 4 6 -5 2 -10 12 -18 21 -18z"/>
<path d="M1702 1939 c2 -6 8 -10 13 -10 5 0 11 4 13 10 2 6 -4 11 -13 11 -9 0
-15 -5 -13 -11z"/>
<path d="M1110 1176 c0 -8 5 -18 10 -21 6 -3 10 3 10 14 0 12 -4 21 -10 21 -5
0 -10 -6 -10 -14z"/>
<path d="M1146 1174 c-11 -27 -7 -37 9 -24 16 14 20 40 6 40 -5 0 -12 -7 -15
-16z"/>
<path d="M1070 1172 c0 -11 22 -32 32 -32 5 0 4 9 -2 20 -11 20 -30 28 -30 12z"/>
<path d="M1170 1145 c-14 -16 -10 -18 14 -9 9 3 16 10 16 15 0 14 -16 11 -30
-6z"/>
<path d="M1052 1138 c3 -7 13 -15 24 -17 16 -3 17 -1 5 13 -16 19 -34 21 -29
4z"/>
<path d="M1185 1120 c-19 -7 -19 -8 -2 -15 10 -4 23 -3 29 3 14 14 -3 21 -27
12z"/>
<path d="M1040 1100 c0 -13 20 -13 40 0 12 8 9 10 -12 10 -16 0 -28 -4 -28
-10z"/>
<path d="M1178 1074 c24 -17 39 -14 27 5 -3 6 -16 11 -28 11 l-21 0 22 -16z"/>
<path d="M1055 1069 c-12 -19 5 -23 22 -6 16 16 16 17 1 17 -9 0 -20 -5 -23
-11z"/>
<path d="M1098 1064 c-5 -4 -8 -16 -8 -28 0 -14 3 -17 11 -9 6 6 9 19 7 28 -1
9 -6 13 -10 9z"/>
<path d="M1150 1062 c0 -5 7 -16 16 -23 14 -12 16 -11 13 5 -4 20 -29 35 -29
18z"/>
<path d="M1125 1050 c-4 -6 -3 -16 3 -22 13 -13 23 4 13 21 -7 10 -10 10 -16
1z"/>
<path d="M3510 1776 c0 -8 3 -16 8 -18 8 -3 132 -194 132 -203 0 -3 5 -11 11
-18 5 -7 41 -59 79 -117 38 -58 77 -116 88 -130 l19 -25 432 3 431 2 0 260 0
260 -600 0 c-511 0 -600 -2 -600 -14z m870 -135 c0 -14 2 -14 10 -1 8 12 10
10 8 -10 -2 -16 2 -25 12 -26 36 -3 41 -5 35 -14 -9 -14 8 -13 23 2 9 9 12 9
12 -1 0 -7 4 -10 8 -7 4 2 14 1 22 -5 14 -8 7 -11 -16 -8 -4 0 -11 -5 -15 -13
-7 -10 -9 -10 -9 0 0 6 -7 12 -16 12 -8 0 -13 -4 -10 -9 6 -8 -17 -23 -39 -25
-5 -1 -8 -10 -7 -21 2 -11 1 -17 -4 -13 -4 4 -13 0 -21 -10 -13 -16 -14 -15
-10 6 3 12 0 22 -6 23 -7 0 -2 4 10 9 15 6 21 15 17 25 -8 20 -21 19 -33 -2
-6 -10 -11 -12 -11 -5 0 6 -6 11 -12 10 -7 -2 -13 4 -13 12 0 8 6 14 13 13 6
-2 12 2 12 8 0 8 5 7 15 -1 13 -11 18 -11 28 0 9 10 9 13 0 17 -7 3 -13 11
-13 19 0 8 -4 14 -8 14 -5 0 -9 6 -9 14 0 8 6 12 14 9 7 -3 13 -13 13 -22z
m88 17 c-2 -6 -10 -20 -18 -30 -10 -13 -16 -14 -22 -5 -9 14 -11 33 -2 24 4
-3 13 0 21 8 18 18 24 19 21 3z m-8 -134 c0 -2 -9 -8 -19 -13 -16 -9 -18 -8
-14 8 3 12 11 17 19 14 8 -3 14 -7 14 -9z m10 -29 c0 -9 -6 -12 -15 -9 -8 4
-12 10 -9 15 8 14 24 10 24 -6z"/>
<path d="M4405 1579 c-10 -15 3 -25 16 -12 7 7 7 13 1 17 -6 3 -14 1 -17 -5z"/>
</g>
</svg>
